<?xml version="1.0" encoding="UTF-8"?>
<svg width="26px" height="33px" viewBox="0 0 26 33" version="1.1" xmlns="http://www.w3.org/2000/svg" xmlns:xlink="http://www.w3.org/1999/xlink">
    <!-- Generator: Sketch 44.1 (41455) - http://www.bohemiancoding.com/sketch -->
    <title>logomark</title>
    <desc>Created with Sketch.</desc>
    <defs></defs>
    <g id="Page-1" stroke="none" stroke-width="1" fill="none" fill-rule="evenodd">
        <g id="logomark" fill-rule="nonzero">
            <path d="M7.02896552,0.0369387097 C6.86131034,0.0420483871 6.68068154,0.103630645 6.47589858,0.264372581 C5.97404057,0.0719612903 5.48758215,0.00516290323 5.05259635,0.396691935 C4.38086815,0.310040323 4.16253144,0.488825806 3.99709128,0.697470968 C3.84963489,0.694437097 2.89354158,0.546841935 2.45518053,1.19694194 C1.3533712,1.0673371 1.00508722,1.84124032 1.39967546,2.56276935 C1.17469371,2.90910968 0.941590264,3.25124516 1.46770791,3.91135161 C1.28159432,4.27903548 1.3969858,4.67790968 1.83550507,5.16066774 C1.71974442,5.67754355 1.94731034,6.04219355 2.35529412,6.32641935 C2.27892901,7.03368387 3.00772008,7.44495968 3.2253712,7.59154355 C3.30890872,8.00367097 3.48310345,8.39253871 4.31563083,8.60757097 C4.45285598,9.22185 4.95313185,9.32787581 5.43763895,9.45678871 C3.83634483,10.3820129 2.46324949,11.5994468 2.47253144,14.5865323 L2.23789858,15.0024387 C0.401918864,16.1124629 -1.25000406,19.6799226 1.33311968,22.5795581 C1.50188235,23.487271 1.78482353,24.1392339 2.0368073,24.8607629 C2.41367546,27.7683823 4.87302231,29.1298452 5.52175659,29.2909065 C6.47231237,30.0106258 7.48462475,30.6935661 8.85460852,31.1720129 C10.1460649,32.4960048 11.5451075,33.0006387 12.9519554,32.9998935 C12.9725761,32.9998935 12.9935659,33.0001597 13.0141866,32.9998935 C14.4209817,33.0006919 15.8201298,32.4961113 17.1114807,31.1720129 C18.4814645,30.6935661 19.4938824,30.0106258 20.4444381,29.2909065 C21.0931197,29.1298452 23.5524665,27.7683823 23.9293874,24.8607629 C24.181213,24.1392339 24.4642596,23.487271 24.6329696,22.5795581 C27.216146,19.6797097 25.5643286,16.1119839 23.7281379,15.0019597 L23.4932414,14.5861065 C23.5025233,11.5992871 22.1293753,10.3818532 20.5281339,9.4563629 C21.012641,9.32745 21.5129168,9.22142419 21.650142,8.60725161 C22.4826694,8.3921129 22.6568641,8.00319194 22.7403489,7.59111774 C22.9580527,7.44464032 23.6868438,7.03331129 23.6105314,6.32599355 C24.0184625,6.04176774 24.2459757,5.67706452 24.1303205,5.16024194 C24.5688398,4.67748387 24.6842312,4.2786629 24.4980649,3.91097903 C25.0243935,3.25103226 24.7908682,2.90895 24.5660974,2.56260968 C24.9603692,1.84108065 24.6125071,1.06728387 23.5102759,1.19688871 C23.0719675,0.546735484 22.1162434,0.694383871 21.9684178,0.697364516 C21.8029777,0.488719355 21.5847992,0.309933871 20.9130183,0.396585484 C20.4780325,0.00500322581 19.9915213,0.0719080645 19.4897688,0.264212903 C18.8938783,-0.203162903 18.499712,0.171493548 18.0493793,0.313074194 C17.3280243,0.0787741935 17.1630588,0.399779032 16.8086572,0.530395161 C16.0219594,0.365182258 15.7828438,0.72498871 15.405712,1.10475484 L14.9670345,1.09613226 C13.7804746,1.79115484 13.191071,3.20664194 12.9821217,3.93429194 C12.7730669,3.20648226 12.1848763,1.79104839 10.9986329,1.09613226 L10.5600081,1.10475484 C10.1823489,0.72498871 9.94318053,0.365182258 9.15658824,0.530395161 C8.80218661,0.399779032 8.63774848,0.0787741935 7.91586613,0.313074194 C7.62032049,0.220141935 7.34840162,0.0268790323 7.0283854,0.0367258065 L7.02896552,0.0369387097" id="Fill-1" fill="#000105"></path>
            <path d="M4.69012576,3.09502742 C7.83818256,4.70835484 9.66830832,6.01355806 10.6708641,7.12507258 C10.1574564,9.17080645 7.47892901,9.26421774 6.49957809,9.2067871 C6.70003651,9.11401452 6.86737525,9.00282581 6.92670588,8.83207742 C6.68094523,8.65856129 5.8095497,8.81376774 5.20121298,8.47408065 C5.43484381,8.42585806 5.54422312,8.37907258 5.65344422,8.20757903 C5.07875456,8.0253871 4.45960649,7.86826452 4.09555375,7.56642097 C4.2920568,7.56892258 4.47542799,7.61017258 4.73215822,7.43319677 C4.21727383,7.15738065 3.66795132,6.93888871 3.2411927,6.5172871 C3.50731034,6.5109 3.79431237,6.51462581 3.87769168,6.41738226 C3.40658012,6.12724839 3.0089858,5.8044871 2.67984584,5.45149355 C3.05244219,5.49615 3.20970791,5.45772097 3.29978499,5.39321129 C2.943643,5.0306371 2.49278296,4.72432258 2.27787424,4.27743871 C2.55443408,4.37223387 2.80747262,4.40853387 2.98994726,4.26913548 C2.86886004,3.99763065 2.35028398,3.83758065 2.05167951,3.20328871 C2.34290061,3.23133871 2.65168357,3.26641452 2.7134929,3.20328871 C2.57827181,2.65596774 2.34643408,2.34826935 2.11897363,2.02944677 C2.74212982,2.02029194 3.68619878,2.03189516 3.64348073,1.97946774 L3.25822718,1.58809839 C3.86682759,1.42522742 4.48966734,1.61428548 4.94184584,1.75464194 C5.1448357,1.59544355 4.93825963,1.3940371 4.69049493,1.18842581 C5.20780527,1.25714032 5.67522515,1.37535484 6.09765923,1.53822581 C6.32348479,1.33554194 5.95120487,1.13291129 5.77099797,0.930333871 C6.57019473,1.08106935 6.90882759,1.29280161 7.24524544,1.50490645 C7.48942394,1.27225645 7.25927383,1.07457581 7.09446653,0.872104839 C7.69705477,1.09389677 8.00747262,1.38035806 8.33418661,1.66309355 C8.44498986,1.5144871 8.61565112,1.40553387 8.40960243,1.04689839 C8.83736308,1.29210968 9.15954158,1.5809129 9.39802434,1.90457903 C9.66271805,1.73697097 9.55576471,1.5078871 9.5571359,1.2966871 C10.0017201,1.65622742 10.2839229,2.03886774 10.629359,2.41245968 C10.6988682,2.36216129 10.7598337,2.19130645 10.8136268,1.92118548 C11.8742475,2.94418548 13.373071,5.52079355 11.1988803,6.5424629 C9.3484503,5.02542097 7.13855578,3.92263548 4.6894929,3.09545323 L4.69012576,3.09502742" id="Fill-4" fill="#6CC04A"></path>
            <path d="M21.3637201,3.09502742 C18.215927,4.70862097 16.3859067,6.01334516 15.3832982,7.12507258 C15.8967586,9.17080645 18.575286,9.26421774 19.5546897,9.2067871 C19.3541258,9.11401452 19.1868398,9.00282581 19.1275619,8.83207742 C19.3733225,8.65856129 20.2447181,8.81376774 20.8530548,8.47408065 C20.6194239,8.42585806 20.5100446,8.37907258 20.4007708,8.20757903 C20.9755132,8.0253871 21.5946613,7.86826452 21.9587667,7.56642097 C21.7623164,7.56892258 21.5787343,7.61017258 21.3221623,7.43319677 C21.8369412,7.15738065 22.3863164,6.93888871 22.8130751,6.5172871 C22.5469047,6.5109 22.2600081,6.51462581 22.1764706,6.41738226 C22.6477931,6.12724839 23.0452819,5.8044871 23.3743692,5.45149355 C23.0018783,5.49615 22.8446126,5.45772097 22.7544828,5.39321129 C23.1107302,5.0306371 23.5614848,4.72432258 23.7764462,4.27743871 C23.4998337,4.37223387 23.2468479,4.40853387 23.064426,4.26913548 C23.1854604,3.99763065 23.7039838,3.83758065 24.0025355,3.20328871 C23.7114199,3.23133871 23.4026369,3.26641452 23.3408276,3.20328871 C23.4761542,2.65575484 23.7081501,2.34805645 23.9354523,2.02918065 C23.3123489,2.02002581 22.3682799,2.03162903 22.410998,1.97925484 L22.7964097,1.58793871 C22.1875984,1.42501452 21.5648641,1.61401935 21.1126856,1.75442903 C20.9097485,1.59517742 21.1162718,1.39377097 21.363931,1.18826613 C20.8466734,1.25687419 20.3792535,1.37508871 19.9567667,1.53795968 C19.7310467,1.33538226 20.1033793,1.13275161 20.283428,0.930120968 C19.484284,1.08085645 19.1457566,1.29264194 18.8092333,1.50464032 C18.5650548,1.27204355 18.7953103,1.07430968 18.9600122,0.871891935 C18.3574239,1.09368387 18.0470061,1.38009194 17.7203448,1.66288065 C17.6095416,1.51422097 17.4389331,1.40532097 17.644929,1.04663226 C17.2170629,1.29184355 16.8948844,1.5807 16.6565598,1.9043129 C16.3918134,1.73675806 16.4988195,1.50767419 16.4973955,1.29652742 C16.0527059,1.65601452 15.770503,2.03860161 15.4252252,2.41224677 C15.3556633,2.3618951 15.2947505,2.19104032 15.2409047,1.92097258 C14.1801785,2.94391935 12.6813022,5.52063387 14.8556511,6.54225 C16.7050791,5.02483548 18.9149209,3.92215645 21.3640365,3.09502742 L21.3637201,3.09502742" id="Fill-5" fill="#6CC04A"></path>
            <path d="M13.0463043,9.29897419 C11.308787,9.25405161 9.64130629,10.5809177 9.63724544,11.3504565 C9.63239351,12.2855806 11.0109736,13.2430597 13.0581176,13.2673839 C15.1486653,13.2822339 16.4826288,12.5009855 16.4893793,11.5358952 C16.4970264,10.4424774 14.5880568,9.28204839 13.0463043,9.29886774 L13.0463043,9.29897419" id="Fill-13" fill="#C51A4A"></path>
            <path d="M17.0789939,10.1229097 C19.9900974,9.63424355 22.4124746,11.3535435 22.3147505,14.4917371 C22.2189249,15.6947468 16.0064016,10.3020145 17.0789939,10.1229097" id="Fill-11" fill="#C51A4A"></path>
            <path d="M22.7366045,15.6344419 C21.0496105,15.1851097 22.1671886,22.5723194 23.5397566,21.9662371 C25.049497,20.7589694 25.5357444,17.2233919 22.7366045,15.6344419" id="Fill-10" fill="#C51A4A"></path>
            <path d="M18.4328398,23.73525 C17.2659513,25.0939984 16.6161623,27.5721387 17.4674118,28.3703129 C18.2812698,28.9903403 20.4663245,28.9036355 22.0803813,26.6774661 C23.2523327,25.1823 22.8595903,22.6852113 22.1901826,22.0221242 C21.1957485,21.2574823 19.7681744,22.2360387 18.4328398,23.7348242 L18.4328398,23.73525" id="Fill-16" fill="#C51A4A"></path>
            <path d="M13.1805233,28.4749016 C14.6953266,28.4091145 16.7281258,28.9599484 16.7320811,29.6905258 C16.7572373,30.4000258 14.8885598,32.0030806 13.0800568,31.9721565 C11.207002,32.0523677 9.37049493,30.4469177 9.39454361,29.8903887 C9.36648682,29.0744903 11.6751602,28.4374839 13.1805233,28.4749016" id="Fill-14" fill="#C51A4A"></path>
            <path d="M7.57422718,24.1446629 C8.65267343,25.4363468 9.14435294,27.705629 8.24437323,28.374571 C7.3928073,28.8853258 5.32493712,28.6749774 3.85511968,26.5759645 C2.86395538,24.814829 2.99163489,23.02245 3.68767546,22.4960468 C4.72841379,21.8658 6.33651116,22.7170403 7.57422718,24.1446629" id="Fill-15" fill="#C51A4A"></path>
            <path d="M3.2423002,15.7265758 C4.9291359,15.2770839 3.8118215,22.6640806 2.43930629,22.0579984 C0.929513185,20.8507839 0.443160243,17.3155258 3.2423002,15.7265758" id="Fill-9" fill="#C51A4A"></path>
            <path d="M9.03560649,10.0307758 C6.12423935,9.54210968 3.70212576,11.2618355 3.79990264,14.3996565 C3.89556998,15.6026661 10.1080933,10.2099339 9.03560649,10.0307758" id="Fill-12" fill="#C51A4A"></path>
            <path d="M10.9546491,14.0523048 C12.5171278,15.0698226 12.7988032,17.3764694 11.5838174,19.2041371 C10.3688316,21.0318581 8.1172211,21.6887177 6.55490061,20.6711468 C4.99247465,19.6535226 4.71079919,17.3468758 5.92578499,15.5191016 C7.14077079,13.6914339 9.39227586,13.0346274 10.9546491,14.0523048" id="Fill-7" fill="#C51A4A"></path>
            <path d="M15.1718702,13.8680371 C13.6093915,14.8856081 13.3277688,17.1923081 14.5427546,19.0199226 C15.7577931,20.8476435 18.0092982,21.5045032 19.5717241,20.486879 C21.1342028,19.4693081 21.4158256,17.1626081 20.2008398,15.3348871 C18.985854,13.5071661 16.7342961,12.8504129 15.1718702,13.8680371" id="Fill-8" fill="#C51A4A"></path>
            <path d="M16.8340771,23.9264371 C16.8450467,25.8353806 15.1656471,27.3911177 13.0831684,27.4011774 C11.0006897,27.4112371 9.30351724,25.8718403 9.29254767,23.9628968 L9.29254767,23.9264371 C9.28163083,22.0174935 10.9609249,20.4617565 13.0435091,20.45175 C15.1259878,20.4416903 16.8231602,21.9810339 16.8340771,23.8900306 C16.8341298,23.9021661 16.8341298,23.9143016 16.8340771,23.9264371" id="Fill-6" fill="#C51A4A"></path>
        </g>
    </g>
</svg>